<?xml version="1.0" encoding="UTF-8" standalone="no"?>
<svg width="208px" height="208px" viewBox="0 0 208 208" version="1.1" xmlns="http://www.w3.org/2000/svg" xmlns:xlink="http://www.w3.org/1999/xlink">
    <!-- Generator: Sketch 39.1 (31720) - http://www.bohemiancoding.com/sketch -->
    <title>icon copy</title>
    <desc>Created with Sketch.</desc>
    <defs></defs>
    <g id="Page-1" stroke="none" stroke-width="1" fill="none" fill-rule="evenodd">
        <g id="icon-copy">
            <g id="Page-1">
                <g>
                    <g id="icon-copy">
                        <g id="Path-17" fill="#0076FF">
                            <g id="Mask">
                                <rect id="path-1" x="0.030381841" y="0" width="207.949757" height="207.909775"></rect>
                            </g>
                        </g>
                        <g id="icon" transform="translate(50.193050, 37.544402)" fill="#FFFFFF">
                            <g id="Mask-+-Oval-1-+-C" transform="translate(0.000000, 0.090226)">
                                <g id="C" transform="translate(53.884839, 66.464310) rotate(-11.000000) translate(-53.884839, -66.464310) translate(10.518043, 7.236511)">
                                    <g id="Group" transform="translate(-0.000000, 0.000000)">
                                        <g id="path-3-link" transform="translate(-0.000000, 0.000000)">
                                            <path d="M83.5589014,8.20072511 L75.2388464,24.9744289 C70.7288876,20.4494072 63.4715911,18.1869302 53.4667397,18.1869302 C43.9802745,18.1869302 36.2045999,22.1787718 30.1394827,30.1625745 C24.0743655,38.1463774 21.0418524,48.2495074 21.0418524,60.4722674 C21.0418524,72.6950275 23.8540548,82.3950723 29.4785438,89.5726932 C35.1030327,96.750314 42.6065588,100.339071 51.9893468,100.339071 C62.7199387,100.339071 71.1176673,96.4902592 77.1827845,88.7925209 L86.5914448,105.176139 C78.3491061,113.966123 66.2708916,118.36105 50.3564388,118.36105 C34.441986,118.36105 22.0786635,113.107943 13.2661,102.60157 C4.45353663,92.0951977 0.0473210073,77.7661769 0.0473210073,59.6140779 C0.0473210073,42.7102608 4.93303656,28.5762812 14.7046142,17.2117149 C24.4761918,5.84714861 36.9820685,0.164950709 52.2226194,0.164950709 C65.2859486,0.164950709 75.7312715,2.8435154 83.5589014,8.20072511 L83.5589014,8.20072511 L83.5589014,8.20072511 Z" id="path-3"></path>
                                        </g>
                                        <g id="path-3-link" transform="translate(-0.000000, 0.000000)">
                                            <path d="M83.5589014,8.20072511 L75.2388464,24.9744289 C70.7288876,20.4494072 63.4715911,18.1869302 53.4667397,18.1869302 C43.9802745,18.1869302 36.2045999,22.1787718 30.1394827,30.1625745 C24.0743655,38.1463774 21.0418524,48.2495074 21.0418524,60.4722674 C21.0418524,72.6950275 23.8540548,82.3950723 29.4785438,89.5726932 C35.1030327,96.750314 42.6065588,100.339071 51.9893468,100.339071 C62.7199387,100.339071 71.1176673,96.4902592 77.1827845,88.7925209 L86.5914448,105.176139 C78.3491061,113.966123 66.2708916,118.36105 50.3564388,118.36105 C34.441986,118.36105 22.0786635,113.107943 13.2661,102.60157 C4.45353663,92.0951977 0.0473210073,77.7661769 0.0473210073,59.6140779 C0.0473210073,42.7102608 4.93303656,28.5762812 14.7046142,17.2117149 C24.4761918,5.84714861 36.9820685,0.164950709 52.2226194,0.164950709 C65.2859486,0.164950709 75.7312715,2.8435154 83.5589014,8.20072511 L83.5589014,8.20072511 L83.5589014,8.20072511 Z" id="path-3"></path>
                                        </g>
                                    </g>
                                </g>
                            </g>
                        </g>
                    </g>
                </g>
            </g>
        </g>
    </g>
</svg>