<?xml version="1.0" encoding="UTF-8" standalone="no"?>
<!-- Created with Inkscape (http://www.inkscape.org/) -->

<svg
   xmlns:dc="http://purl.org/dc/elements/1.1/"
   xmlns:cc="http://creativecommons.org/ns#"
   xmlns:rdf="http://www.w3.org/1999/02/22-rdf-syntax-ns#"
   xmlns:svg="http://www.w3.org/2000/svg"
   xmlns="http://www.w3.org/2000/svg"
   version="1.1"
   width="256"
   height="256"
   id="svg2">
  <defs
     id="defs4" />
  <metadata
     id="metadata7">
    <rdf:RDF>
      <cc:Work
         rdf:about="">
        <dc:format>image/svg+xml</dc:format>
        <dc:type
           rdf:resource="http://purl.org/dc/dcmitype/StillImage" />
        <dc:title></dc:title>
      </cc:Work>
    </rdf:RDF>
  </metadata>
  <g
     transform="translate(0,-796.36218)"
     id="layer1">
    <g
       id="text2987"
       style="font-size:300.78329468px;font-style:normal;font-weight:normal;line-height:125%;letter-spacing:0px;word-spacing:0px;fill:#000000;fill-opacity:1;stroke:none;font-family:Sans">
      <path
         d="m 128,796.36216 c -70.640392,0 -128,57.35961 -128,128 0,70.64039 57.359607,128.00004 128,128.00004 70.64039,0 128,-57.35965 128,-128.00004 0,-70.6404 -57.35961,-128 -128,-128 z m 0,27.9485 c 55.30705,0 100.0515,44.74443 100.0515,100.0515 0,55.30705 -44.74445,100.05154 -100.0515,100.05154 -55.30706,0 -100.051502,-44.74449 -100.051502,-100.05154 0,-55.30707 44.744442,-100.0515 100.051502,-100.0515 z"
         id="path2994"
         style="font-size:medium;font-style:normal;font-variant:normal;font-weight:normal;font-stretch:normal;text-indent:0;text-align:start;text-decoration:none;line-height:125%;letter-spacing:0;word-spacing:0;text-transform:none;direction:ltr;block-progression:tb;writing-mode:lr-tb;text-anchor:start;baseline-shift:baseline;color:#000000;fill:#4682b4;fill-opacity:1;fill-rule:nonzero;stroke:none;stroke-width:8;marker:none;visibility:visible;display:inline;overflow:visible;enable-background:accumulate;font-family:Sans;-inkscape-font-specification:Sans" />
      <path
         d="m 126.21459,841.80114 c -18.03634,2e-4 -33.14552,5.18983 -44.463517,15.69098 -11.297638,10.48245 -17.030141,24.55462 -17.030043,41.13305 -9.8e-5,16.84197 5.479526,30.95838 16.377682,41.27039 -4.5e-5,0.0114 -4.5e-5,0.023 0,0.0344 10.916978,10.21288 25.767478,15.21038 43.673818,15.2103 9.05471,10e-5 17.41276,-1.73087 24.92704,-5.25322 0.63193,-0.29621 0.70756,-0.29453 1.27039,-0.54936 -1.48714,5.20254 -4.31704,10.37134 -8.85837,15.62232 -5e-5,0.0114 -5e-5,0.023 0,0.0344 -5.88326,6.81702 -14.15734,10.23182 -26.06009,10.23176 -4.59859,6e-5 -9.38163,-0.50279 -14.35193,-1.51073 -4.69678,-1.07627 -11.68555,-3.49366 -20.703862,-7.31331 -1.325401,-0.56222 -2.927514,-0.41739 -4.130603,0.37341 -1.203088,0.79079 -1.971441,2.20407 -1.980985,3.64376 l 0,25.20172 c 0.08556,1.65226 0.224385,2.1755 0.571501,2.71237 0.347115,0.53687 0.804299,0.92539 2.449958,1.44203 8.083052,2.62159 15.082241,4.50549 21.047211,5.63089 0.0342,0.012 0.0685,0.023 0.10295,0.034 6.03902,1.0066 12.00663,1.5108 17.95708,1.5107 22.4893,10e-5 41.01619,-7.71934 54.3176,-22.96992 13.37273,-15.20167 19.94828,-35.29854 19.9485,-59.53648 -2.1e-4,-25.54176 -5.24782,-45.80855 -16.34335,-60.39485 -0.01,-0.0131 -0.0245,-0.0212 -0.0344,-0.0344 -11.03989,-14.73168 -27.79815,-22.21439 -48.6867,-22.21459 z m 0,30.72961 c 7.47053,1.4e-4 12.63258,2.14985 16.61803,6.48927 0.0114,0.0115 0.0229,0.023 0.0344,0.0344 4.01924,4.28165 6.24876,10.52203 6.24892,19.57082 -1.6e-4,9.04909 -2.22979,15.2895 -6.24892,19.57081 -0.0115,0.0114 -0.023,0.0229 -0.0344,0.0344 -3.98545,4.33965 -9.14757,6.48938 -16.61803,6.48927 -7.47077,1.1e-4 -12.68973,-2.15604 -16.7897,-6.5236 -4.01937,-4.2813 -6.24903,-10.52179 -6.24892,-19.57082 -1.1e-4,-9.04872 2.22945,-15.28918 6.24892,-19.57082 4.09997,-4.36732 9.31884,-6.52346 16.7897,-6.5236 z"
         id="path2992"
         style="font-size:medium;font-style:normal;font-variant:normal;font-weight:normal;font-stretch:normal;text-indent:0;text-align:start;text-decoration:none;line-height:125%;letter-spacing:0;word-spacing:0;text-transform:none;direction:ltr;block-progression:tb;writing-mode:lr-tb;text-anchor:start;baseline-shift:baseline;color:#000000;fill:#4682b4;fill-opacity:1;fill-rule:nonzero;stroke:none;stroke-width:8;marker:none;visibility:visible;display:inline;overflow:visible;enable-background:accumulate;font-family:Sans;-inkscape-font-specification:Sans" />
      <path
         d="m 128,805.15186 c 65.89008,0 119.2103,53.32022 119.2103,119.2103 0,65.89008 -53.32022,119.21034 -119.2103,119.21034 -65.890085,0 -119.2103,-53.32026 -119.2103,-119.21034 0,-65.89008 53.320214,-119.2103 119.2103,-119.2103 z m 0,10.3691 c -60.057688,0 -108.841202,48.78351 -108.841202,108.8412 0,60.05769 48.783514,108.84124 108.841202,108.84124 60.05769,0 108.8412,-48.78355 108.8412,-108.84124 0,-60.05769 -48.78351,-108.8412 -108.8412,-108.8412 z"
         id="path3775"
         style="font-size:medium;font-style:normal;font-variant:normal;font-weight:normal;font-stretch:normal;text-indent:0;text-align:start;text-decoration:none;line-height:125%;letter-spacing:0;word-spacing:0;text-transform:none;direction:ltr;block-progression:tb;writing-mode:lr-tb;text-anchor:start;baseline-shift:baseline;color:#000000;fill:#87ceeb;fill-opacity:1;fill-rule:nonzero;stroke:none;stroke-width:8;marker:none;visibility:visible;display:inline;overflow:visible;enable-background:accumulate;font-family:Sans;-inkscape-font-specification:Sans" />
      <path
         d="m 126.21459,850.59084 c 18.89579,1.8e-4 32.28209,6.14611 41.68241,18.71244 -5e-5,0.0114 -5e-5,0.023 0,0.0344 9.53912,12.5205 14.59206,30.75592 14.59227,55.1073 -2e-4,22.66552 -5.9857,40.32042 -17.78541,53.7339 -11.65663,13.3648 -27.15009,19.98287 -47.69098,19.98284 -5.45291,3e-5 -10.93606,-0.47783 -16.51503,-1.40773 -4.66253,-0.88324 -10.3966,-2.43643 -16.82403,-4.42918 l 0,-15.45065 c 6.28028,2.47502 11.81811,4.45088 16.06867,5.4249 0.0342,0.0119 0.0684,0.0234 0.10295,0.0344 5.53516,1.12972 10.93887,1.68247 16.20601,1.68241 13.70011,6e-5 25.01502,-4.39828 32.68669,-13.28756 7.07844,-8.18455 11.20611,-17.02836 12.0515,-26.23175 0.14093,-0.35692 0.31472,-0.66353 0.37769,-1.30473 0.0861,-0.87719 -0.17185,-2.29051 -0.96138,-3.29613 -0.78952,-1.00562 -1.80599,-1.43747 -2.4721,-1.61374 -1.33221,-0.35253 -1.8694,-0.12836 -2.40343,-0.0344 -0.53403,0.094 -0.99736,0.19254 -1.4764,0.34335 -1.91615,0.60324 -4.34969,1.68378 -7.86266,3.33047 -6.25581,2.93243 -13.27686,4.42926 -21.21888,4.42919 -16.29116,9e-5 -28.54095,-4.34801 -37.630904,-12.8412 -9.111227,-8.62118 -13.630988,-19.88325 -13.630901,-34.88412 -8.7e-5,-14.61837 4.67657,-25.83081 14.248927,-34.71245 9.551558,-8.8622 22.066598,-13.3217 38.454938,-13.32189 z m 0,13.15021 c -9.31131,1.9e-4 -17.4135,3.09559 -23.2103,9.27039 -5.87779,6.26116 -8.61816,15.08388 -8.61802,25.61373 -1.4e-4,10.53012 2.74012,19.3528 8.61802,25.61373 5.7968,6.17513 13.8989,9.27052 23.2103,9.27039 9.29298,1.3e-4 17.37807,-3.09141 23.07296,-9.27039 0.011,-0.0116 0.0234,-0.0226 0.0344,-0.0344 5.85488,-6.25872 8.58351,-15.06899 8.58369,-25.57939 -1.8e-4,-10.51014 -2.72891,-19.32045 -8.58369,-25.5794 -0.0111,-0.0121 -0.0232,-0.0223 -0.0344,-0.0344 -5.69489,-6.17863 -13.78006,-9.2702 -23.07296,-9.27039 z m 26.84979,76.7382 c -0.1426,0.19515 -0.26907,0.40209 -0.37768,0.61802 0.16249,-0.36919 0.3272,-0.55241 0.37768,-0.61802 z"
         id="path3777"
         style="font-size:medium;font-style:normal;font-variant:normal;font-weight:normal;font-stretch:normal;text-indent:0;text-align:start;text-decoration:none;line-height:125%;letter-spacing:0;word-spacing:0;text-transform:none;direction:ltr;block-progression:tb;writing-mode:lr-tb;text-anchor:start;baseline-shift:baseline;color:#000000;fill:#87ceeb;fill-opacity:1;fill-rule:nonzero;stroke:none;stroke-width:8;marker:none;visibility:visible;display:inline;overflow:visible;enable-background:accumulate;font-family:Sans;-inkscape-font-specification:Sans" />
    </g>
  </g>
</svg>
